# xmcd CD database file
#
# Track frame offsets:
#	182
#	20742
#	37985
#	61215
#	77710
#	99412
#	120000
#	136952
#
# Disc length: 2041 seconds
#
# Revision: 0
# Processed by: cddbd v1.4PL0 Copyright (c) Steve Scherf et al.
# Submitted via: NeoAudio 1.5.7
#
DISCID=5807f708
DTITLE=Galy Galiano - Solo Salsa
DYEAR=1900
DGENRE=Salsa
TTITLE0=Te Olvidaste de Mi
TTITLE1=No Sirve Pa' Na
TTITLE2=Fue su Primera Vez
TTITLE3=Si Supieras
TTITLE4=La Cita
TTITLE5=Que te Aleja de Mí
TTITLE6=El Galy Galy (Tu Abuela)
TTITLE7=Cómo la Quiero, Cuanto La Extraño
EXTD=
EXTT0=
EXTT1=
EXTT2=
EXTT3=
EXTT4=
EXTT5=
EXTT6=
EXTT7=
PLAYORDER=
